<?xml version="1.0" encoding="UTF-8" standalone="no"?>
<!-- Created with Inkscape (http://www.inkscape.org/) -->

<svg
   width="7.4083333mm"
   height="7.4083333mm"
   viewBox="0 0 7.4083333 7.4083333"
   version="1.1"
   id="svg5"
   sodipodi:docname="pool_icon.svg"
   inkscape:version="1.1.1 (3bf5ae0d25, 2021-09-20)"
   xmlns:inkscape="http://www.inkscape.org/namespaces/inkscape"
   xmlns:sodipodi="http://sodipodi.sourceforge.net/DTD/sodipodi-0.dtd"
   xmlns="http://www.w3.org/2000/svg"
   xmlns:svg="http://www.w3.org/2000/svg">
  <sodipodi:namedview
     id="namedview7"
     pagecolor="#ffffff"
     bordercolor="#666666"
     borderopacity="1.0"
     inkscape:pageshadow="2"
     inkscape:pageopacity="0.0"
     inkscape:pagecheckerboard="0"
     inkscape:document-units="mm"
     showgrid="false"
     inkscape:zoom="6.1148148"
     inkscape:cx="-34.915203"
     inkscape:cy="8.0950939"
     inkscape:window-width="1920"
     inkscape:window-height="1017"
     inkscape:window-x="-8"
     inkscape:window-y="-8"
     inkscape:window-maximized="1"
     inkscape:current-layer="layer1" />
  <defs
     id="defs2">
    <clipPath
       id="clip0_26565_2741">
      <rect
         width="18"
         height="18"
         fill="#ffffff"
         transform="rotate(-0.156794,355.4001,-337.45706)"
         id="rect834"
         x="0"
         y="0" />
    </clipPath>
    <clipPath
       id="clip0_26565_2734">
      <rect
         width="28"
         height="28"
         fill="#ffffff"
         transform="rotate(-0.156794,330.41616,-334.45789)"
         id="rect860"
         x="0"
         y="0" />
    </clipPath>
  </defs>
  <g
     inkscape:label="Capa 1"
     inkscape:groupmode="layer"
     id="layer1"
     transform="translate(-74.442314,-85.438126)">
    <g
       style="fill:none"
       id="g850"
       transform="matrix(0.26458333,0,0,0.26458333,60.678678,86.510571)">
      <g
         clip-path="url(#clip0_26565_2741)"
         id="g832">
        <path
           d="m 9.95618,13.6837 c -0.8603,0.0024 -1.55827,0.7019 -1.55593,1.5589 0.00235,0.8574 0.70414,1.5533 1.56444,1.551 0.86061,-0.0024 1.55851,-0.7022 1.55621,-1.5595 -0.0023,-0.857 -0.7043,-1.5527 -1.56472,-1.5504 z"
           fill="#383b58"
           id="path824" />
        <path
           d="M 13.7567,11.5551 C 12.7382,10.5427 11.3846,9.98703 9.94576,9.99096 8.5125,9.99489 7.16564,10.5542 6.15294,11.5658 c -0.40902,0.4093 -0.40791,1.0742 0.00235,1.482 0.19929,0.1985 0.46421,0.307 0.74587,0.3063 0.28038,-8e-4 0.54371,-0.1103 0.74163,-0.3081 0.61629,-0.6159 1.4362,-0.9564 2.30871,-0.9588 0.8758,-0.0024 1.6998,0.3358 2.3199,0.9519 0.1993,0.1979 0.4641,0.3068 0.7454,0.306 0.2807,-7e-4 0.5439,-0.1102 0.742,-0.3081 0.4095,-0.4093 0.4084,-1.0739 -0.0021,-1.4819 z"
           fill="#383b58"
           id="path826" />
        <path
           d="M 18.6332,6.66791 C 16.3046,4.35773 13.2124,3.09078 9.92678,3.09977 6.64557,3.10875 3.56346,4.38962 1.24825,6.707 0.839231,7.11627 0.840767,7.78123 1.25174,8.18897 1.45089,8.38646 1.71538,8.49463 1.99647,8.49386 2.27741,8.49309 2.54103,8.38391 2.73909,8.18546 4.65817,6.26482 7.21277,5.20274 9.93251,5.1953 12.6562,5.18785 15.2192,6.23805 17.1492,8.15327 c 0.1991,0.19764 0.464,0.30623 0.745,0.30546 0.2808,-7.7e-4 0.5444,-0.11052 0.7423,-0.30868 0.4092,-0.40959 0.4078,-1.0748 -0.0033,-1.48214 z"
           fill="#383b58"
           id="path828" />
        <path
           d="M 16.1334,9.17279 C 14.4758,7.52812 12.2752,6.62599 9.93672,6.63239 7.60255,6.63878 5.41012,7.55009 3.76301,9.19798 3.56466,9.39628 3.45593,9.65964 3.45627,9.93974 c 7.6e-4,0.27976 0.11051,0.54286 0.30966,0.74036 0.19915,0.1976 0.46379,0.3062 0.74488,0.3054 0.28066,-7e-4 0.54427,-0.1105 0.74262,-0.3083 C 6.5047,9.42543 8.17004,8.73319 9.94246,8.72834 11.7186,8.72348 13.39,9.409 14.6489,10.6581 c 0.1994,0.1979 0.4639,0.3065 0.7452,0.3058 0.2808,-8e-4 0.5445,-0.1106 0.7423,-0.3087 0.1981,-0.1983 0.3071,-0.4617 0.3065,-0.74177 -5e-4,-0.2801 -0.1105,-0.54286 -0.3095,-0.74064 z"
           fill="#383b58"
           id="path830" />
      </g>
    </g>
    <g
       style="fill:none"
       id="g875"
       transform="matrix(0.26458333,0,0,0.26458333,74.18738,85.20924)">
      <g
         clip-path="url(#clip0_26565_2734)"
         id="g858">
        <path
           d="m 21.5027,14.5212 c 1.4561,0.1664 2.7711,-0.8791 2.9375,-2.3353 0.1661,-1.4558 -0.8793,-2.77096 -2.3354,-2.93723 -1.4559,-0.1664 -2.7711,0.87913 -2.937,2.33523 -0.1667,1.4561 0.879,2.7711 2.3349,2.9373 z"
           fill="#383b58"
           id="path852" />
        <path
           d="m 9.94033,12.395 3.94477,-0.7989 0.8525,1.3627 -3.067,2.9324 c 0.4751,0.1187 0.9316,0.2961 1.3562,0.5286 0.2036,0.1115 0.3945,0.2404 0.579,0.365 0.2973,0.2007 0.5771,0.3939 0.8541,0.4691 0.219,0.0595 0.5059,0.0622 0.5241,0.0632 0.3898,-0.0045 0.733,-0.1139 1.0829,-0.3434 0.9102,-0.597 2.0276,-1.2159 3.4155,-1.2807 0.1024,-0.0047 0.2059,-0.0073 0.3076,-0.0076 0.4453,-0.0012 0.8808,0.0413 1.2974,0.125 -0.2869,-0.4552 -5.3926,-6.608 -5.3926,-6.608 L 15.5602,9.04233 C 15.2308,8.65292 14.6807,8.49114 14.1746,8.67822 L 9.38704,10.4491 c -0.46158,0.1702 -0.74311,0.6559 -0.64252,1.153 0.11126,0.5491 0.64667,0.9041 1.19581,0.7929 z"
           fill="#383b58"
           id="path854" />
        <path
           d="m 27.4027,18.4783 c -0.6525,0.2947 -1.1391,0.4155 -1.6799,0.417 -0.213,6e-4 -0.4334,-0.0178 -0.6739,-0.0566 -0.8011,-0.1405 -1.373,-0.6013 -1.9262,-1.0469 -0.3402,-0.2741 -0.6616,-0.533 -1.033,-0.7233 -0.6723,-0.3461 -1.4802,-0.5278 -2.3369,-0.5254 -0.0889,2e-4 -0.1793,0.0025 -0.2687,0.0067 -1.1713,0.0546 -2.1197,0.5784 -2.9704,1.1363 -0.499,0.3274 -1.0915,0.4855 -1.6297,0.487 -0.1623,4e-4 -0.4927,-0.0343 -0.7072,-0.0955 -0.4118,-0.1175 -0.7652,-0.3563 -1.107,-0.5869 -0.1756,-0.1186 -0.3414,-0.2305 -0.5089,-0.3223 -0.7172,-0.3928 -1.5447,-0.5993 -2.3929,-0.5969 h -0.0172 c -1.18762,0.0072 -2.26068,0.3743 -3.10306,1.0616 -1.17299,0.9573 -1.94808,1.2275 -2.16915,1.2659 0,0 -0.18538,0.049 -0.58373,0.05 C 3.53175,18.9511 2.89332,18.7029 2.25245,18.4263 1.80224,18.232 1.37815,18.1209 0.963563,18.0893 1.04406,18.1355 1.12113,18.1838 1.1959,18.2348 c 0.32552,0.2256 0.5937,0.5002 0.85292,0.7657 0.13877,0.1421 0.26977,0.2763 0.40892,0.4037 0.54478,0.4984 1.66794,1.0862 2.9588,1.0827 0.65501,-0.0018 1.2884,-0.146 1.88237,-0.4286 0.17477,-0.0832 0.34487,-0.1821 0.5249,-0.2867 0.2987,-0.1735 0.60899,-0.3484 0.95304,-0.4653 0.43414,-0.1476 1.10879,-0.101 1.10879,-0.101 0.69946,0.0428 1.22416,0.3718 1.60306,0.6536 1.1543,0.8586 2.2423,1.2624 3.424,1.2706 l 0.0602,2e-4 c 0.813,-0.0022 1.5564,-0.161 2.2097,-0.4718 0.3043,-0.1449 0.5938,-0.3575 0.9004,-0.5828 0.5758,-0.423 1.1713,-0.8605 1.9396,-0.8928 0.0457,-0.002 0.0922,-0.003 0.1394,-0.0032 0.4208,-0.0011 1.0545,0.0702 1.6843,0.4168 0.758,0.4186 1.6749,0.8459 2.7314,0.843 0.1535,-4e-4 0.3102,-0.0099 0.4656,-0.0279 0.9722,-0.1127 1.7932,-0.4735 2.4402,-1.0723 0.1388,-0.1284 0.2694,-0.2637 0.4076,-0.407 0.2948,-0.3053 0.5996,-0.6212 0.9851,-0.8614 0.0289,-0.0181 0.0579,-0.0357 0.0873,-0.0527 -0.4666,0.0428 -0.9606,0.1896 -1.5608,0.4607 z"
           fill="#383b58"
           id="path856" />
      </g>
    </g>
    <rect
       style="fill:#000000;fill-opacity:0;stroke-width:0.564999;stroke-linecap:round;paint-order:markers fill stroke"
       id="rect949"
       width="7.4083333"
       height="7.4083333"
       x="59.605125"
       y="85.438126"
       ry="0" />
  </g>
</svg>
